<svg width="60" height="61" viewBox="0 0 60 61" fill="none" xmlns="http://www.w3.org/2000/svg">
<rect y="0.163818" width="60" height="60" rx="8" fill="#6366F1" fill-opacity="0.08"/>
<g clip-path="url(#clip0_4632_11154)">
<path d="M41.8127 38.1465V18.898C41.8127 18.5966 41.5673 18.3511 41.2658 18.3511H38.8598C38.5582 18.3511 38.3129 18.5966 38.3129 18.898V41.9744H42.9062C43.5104 41.9744 44 42.464 44 43.0679C44 43.6721 43.5104 44.1617 42.9062 44.1617H17.0959C16.4918 44.1617 16.0021 43.6721 16.0021 43.0679V35.2483C16.0021 33.7407 17.2288 32.5141 18.7363 32.5141H21.1423C22.6501 32.5141 23.8765 33.7407 23.8765 35.2483V38.1465C23.8765 38.7506 23.3869 39.2402 22.783 39.2402C22.1788 39.2402 21.6892 38.7506 21.6892 38.1465V35.2483C21.6892 34.9468 21.444 34.7014 21.1423 34.7014H18.7363C18.4349 34.7014 18.1894 34.9468 18.1894 35.2483V41.9744H26.064V27.6473C26.064 26.1396 27.2904 24.9132 28.7982 24.9132H31.2042C32.7117 24.9132 33.9384 26.1396 33.9384 27.6473V38.1465C33.9384 38.7506 33.4487 39.2402 32.8446 39.2402C32.2407 39.2402 31.7509 38.7506 31.7509 38.1465V27.6473C31.7509 27.3457 31.5056 27.1005 31.2042 27.1005H28.7982C28.4965 27.1005 28.2513 27.3457 28.2513 27.6473V41.9744H36.1256V18.898C36.1256 17.3904 37.3523 16.1638 38.8598 16.1638H41.2658C42.7734 16.1638 44 17.3904 44 18.898V38.1465C44 38.7506 43.5104 39.2402 42.9062 39.2402C42.3023 39.2402 41.8127 38.7506 41.8127 38.1465ZM20.3568 25.952H18.7282C18.4594 25.952 18.1873 25.7831 18.1873 25.4601C18.1873 24.8559 17.6977 24.3663 17.0938 24.3663C16.4896 24.3663 16 24.8559 16 25.4601C16 26.9287 17.1454 28.0859 18.6259 28.137V28.7409C18.6259 29.345 19.1155 29.8346 19.7196 29.8346C20.3235 29.8346 20.8131 29.345 20.8131 28.7409V28.1075C22.3177 27.8973 23.4392 26.66 23.4392 25.118V25.0223C23.4392 23.3037 22.0564 21.9056 20.3568 21.9056H19.3547C18.8564 21.9056 18.4659 21.5251 18.4659 21.0391V20.9599C18.4659 20.4702 18.848 20.1011 19.3547 20.1011H20.3024C20.5809 20.1011 20.8689 20.2874 20.8689 20.5995C20.8689 21.2036 21.3587 21.6932 21.9626 21.6932C22.5668 21.6932 23.0564 21.2036 23.0564 20.5995C23.0564 19.2887 22.0885 18.1952 20.8131 17.9608V17.2576C20.8131 16.6534 20.3235 16.1638 19.7196 16.1638C19.1155 16.1638 18.6259 16.6534 18.6259 17.2576V17.9984C18.0845 18.1262 17.5887 18.396 17.1867 18.7895C16.6009 19.3626 16.2786 20.1334 16.2786 20.9599V21.0391C16.2786 21.8652 16.6003 22.6366 17.1845 23.2115C17.7624 23.7799 18.5331 24.0929 19.3547 24.0929H20.3568C20.842 24.0929 21.2517 24.5186 21.2517 25.0223V25.118C21.2517 25.5936 20.867 25.952 20.3568 25.952Z" fill="url(#paint0_linear_4632_11154)"/>
</g>
<defs>
<linearGradient id="paint0_linear_4632_11154" x1="16" y1="30.2297" x2="44" y2="30.2297" gradientUnits="userSpaceOnUse">
<stop stop-color="#6366F1"/>
<stop offset="0.5" stop-color="#8B5CF6"/>
<stop offset="1" stop-color="#D946EF"/>
</linearGradient>
<clipPath id="clip0_4632_11154">
<rect width="28" height="28" fill="white" transform="translate(16 16.1638)"/>
</clipPath>
</defs>
</svg>
