<svg width="60" height="61" viewBox="0 0 60 61" fill="none" xmlns="http://www.w3.org/2000/svg">
<rect y="0.222168" width="60" height="60" rx="8" fill="#6366F1" fill-opacity="0.08"/>
<g clip-path="url(#clip0_4632_11161)">
<path d="M29.9452 44.2222C29.7775 44.2222 29.6101 44.1837 29.456 44.1068C29.3281 44.0427 26.2865 42.5006 23.1042 39.0414C21.2388 37.0141 19.7067 34.7407 18.5502 32.2847C17.1056 29.2171 16.2484 25.8585 16.0016 22.3023C15.9816 22.0122 16.0779 21.7262 16.2691 21.5072C16.4605 21.2882 16.7309 21.1543 17.0213 21.1353C19.0244 21.0037 20.5937 19.3261 20.5937 17.3159C20.5937 16.7118 21.0833 16.2222 21.6874 16.2222H38.3124C38.9163 16.2222 39.4062 16.7118 39.4062 17.3159C39.4062 19.3248 40.9744 21.0024 42.9765 21.1353C43.2713 21.1547 43.5455 21.2927 43.737 21.5177C43.9286 21.7426 44.0209 22.0355 43.9931 22.3297C43.619 26.2783 42.5287 29.9714 40.7522 33.3067C40.4681 33.8399 39.8057 34.0417 39.2727 33.7578C38.7395 33.4739 38.5376 32.8115 38.8215 32.2783C40.3096 29.4845 41.2767 26.4126 41.702 23.1337C39.4624 22.5433 37.7418 20.6912 37.3189 18.4097H22.681C22.2563 20.701 20.5232 22.5589 18.2697 23.141C18.8445 28.6589 20.9893 33.4833 24.6529 37.4939C26.846 39.8944 28.9961 41.3107 29.939 41.8712C30.9708 41.2436 33.4662 39.5571 35.8955 36.6328C36.2815 36.1679 36.9709 36.1043 37.4357 36.4903C37.9003 36.8763 37.9642 37.5659 37.5782 38.0305C34.1209 42.1923 30.5921 44.0261 30.4434 44.1021C30.287 44.1822 30.1161 44.2222 29.9452 44.2222ZM30.7912 38.3031C31.1554 37.821 31.0599 37.1352 30.5782 36.771C29.6325 36.0564 28.7376 35.2462 27.9182 34.363C25.5356 31.7944 23.9191 28.7766 23.1072 25.3838C23.5447 25.0459 23.9563 24.6725 24.3364 24.2683C24.9665 23.5977 25.5047 22.849 25.9357 22.0423C26.2203 21.5096 26.0191 20.8469 25.4863 20.5621C24.9535 20.2776 24.2909 20.4788 24.0063 21.0116C23.666 21.6482 23.2409 22.2397 22.7427 22.7699C22.3035 23.2371 21.8113 23.6518 21.2803 24.0027C20.9077 24.2488 20.7221 24.6968 20.8116 25.1345C21.6443 29.2064 23.4955 32.8119 26.3145 35.8507C27.2207 36.8276 28.2115 37.7246 29.2593 38.5163C29.4567 38.6654 29.6883 38.7374 29.9179 38.7374C30.249 38.7374 30.5763 38.5876 30.7912 38.3031Z" fill="url(#paint0_linear_4632_11161)"/>
</g>
<defs>
<linearGradient id="paint0_linear_4632_11161" x1="15.999" y1="30.2892" x2="43.9979" y2="30.2892" gradientUnits="userSpaceOnUse">
<stop stop-color="#6366F1"/>
<stop offset="0.5" stop-color="#8B5CF6"/>
<stop offset="1" stop-color="#D946EF"/>
</linearGradient>
<clipPath id="clip0_4632_11161">
<rect width="28" height="28" fill="white" transform="translate(16 16.2222)"/>
</clipPath>
</defs>
</svg>
