<svg width="60" height="61" viewBox="0 0 60 61" fill="none" xmlns="http://www.w3.org/2000/svg">
<rect y="0.222168" width="60" height="60" rx="8" fill="#6366F1" fill-opacity="0.08"/>
<path d="M38.5312 32.635C39.1354 32.635 39.625 33.1247 39.625 33.7288V35.0413C39.625 35.6454 39.1354 36.135 38.5312 36.135H36.0156C35.4115 36.135 34.9219 35.6454 34.9219 35.0413V33.7288C34.9219 33.1247 35.4115 32.635 36.0156 32.635H38.5312ZM41.8125 30.6663V27.385H18.1875V36.1284C18.1875 37.3345 19.1689 38.3159 20.375 38.3159H39.625C40.8311 38.3159 41.8125 37.3345 41.8125 36.1284C41.8125 35.5243 42.3021 35.0347 42.9062 35.0347C43.5104 35.0347 44 35.5243 44 36.1284C44 38.5409 42.0374 40.5034 39.625 40.5034H20.375C17.9626 40.5034 16 38.5409 16 36.1284V24.3159C16 21.9035 17.9626 19.9409 20.375 19.9409H39.625C42.0374 19.9409 44 21.9035 44 24.3159V30.6663C44 31.2704 43.5104 31.76 42.9062 31.76C42.3021 31.76 41.8125 31.2704 41.8125 30.6663ZM41.8125 25.1975V24.3159C41.8125 23.1098 40.8311 22.1284 39.625 22.1284H20.375C19.1689 22.1284 18.1875 23.1098 18.1875 24.3159V25.1975H41.8125ZM21.4688 29.5725C20.8646 29.5725 20.375 30.0622 20.375 30.6663C20.375 31.2704 20.8646 31.76 21.4688 31.76H30.4922C31.0963 31.76 31.5859 31.2704 31.5859 30.6663C31.5859 30.0622 31.0963 29.5725 30.4922 29.5725H21.4688Z" fill="url(#paint0_linear_4632_11168)"/>
<defs>
<linearGradient id="paint0_linear_4632_11168" x1="16" y1="30.2714" x2="44" y2="30.2714" gradientUnits="userSpaceOnUse">
<stop stop-color="#6366F1"/>
<stop offset="0.5" stop-color="#8B5CF6"/>
<stop offset="1" stop-color="#D946EF"/>
</linearGradient>
</defs>
</svg>
