<svg width="60" height="61" viewBox="0 0 60 61" fill="none" xmlns="http://www.w3.org/2000/svg">
<rect y="0.105225" width="60" height="60" rx="8" fill="#6366F1" fill-opacity="0.08"/>
<g clip-path="url(#clip0_4632_11138)">
<path d="M38.1484 30.1602C36.3391 30.1602 34.8672 31.6322 34.8672 33.4415C34.8672 35.2507 36.3391 36.7227 38.1484 36.7227H42.7968C42.8154 36.7227 42.8335 36.7209 42.8518 36.7199C42.8699 36.7208 42.8878 36.7227 42.9062 36.7227C43.5103 36.7227 43.9999 36.233 43.9999 35.6289V27.043C43.9999 25.5869 43.2843 24.2954 42.1868 23.4998L38.4659 17.3956C38.3142 17.1466 38.0693 16.9686 37.7857 16.901C37.5021 16.8333 37.2033 16.8817 36.9555 17.0354L34.2115 18.737L32.974 16.6428C32.8252 16.391 32.5818 16.2094 32.2982 16.1383C32.0145 16.0672 31.7141 16.1127 31.4643 16.2645L20.9278 22.668H19.2812C18.6873 22.668 18.2024 22.1921 18.1878 21.6016C18.2024 21.0111 18.6873 20.5352 19.2812 20.5352H21.3047C21.9088 20.5352 22.3984 20.0455 22.3984 19.4414C22.3984 18.8374 21.9088 18.3477 21.3047 18.3477H19.2812C17.7337 18.3477 16.4331 19.4247 16.0891 20.8685C16.0319 21.0012 16 21.1472 16 21.3008V21.5742V21.6289V39.7305C16 42.1428 17.9626 44.1055 20.375 44.1055H39.625C41.5111 44.1055 43.1793 42.9039 43.7758 41.1156C43.967 40.5426 43.6574 39.9231 43.0844 39.732C42.5114 39.5409 41.8919 39.8504 41.7007 40.4234C41.4025 41.3173 40.5684 41.918 39.625 41.918H20.375C19.1688 41.918 18.1875 40.9367 18.1875 39.7305V24.6679C18.5298 24.7893 18.8979 24.8555 19.2812 24.8555H39.625C40.8311 24.8555 41.8125 25.8368 41.8125 27.043V30.1602H38.1484ZM41.8125 34.5352H38.1484C37.5453 34.5352 37.0546 34.0446 37.0546 33.4414C37.0546 32.8383 37.5453 32.3477 38.1484 32.3477H41.8125V34.5352ZM25.1398 22.6681L31.6541 18.7091L32.8188 20.6801C32.8411 20.7339 32.8668 20.787 32.8986 20.8382C32.9224 20.8765 32.9487 20.9123 32.9762 20.9466L33.9934 22.6681H25.1398ZM36.5343 22.668L35.3246 20.6207L37.1717 19.4753L39.1179 22.668H36.5343Z" fill="url(#paint0_linear_4632_11138)"/>
</g>
<defs>
<linearGradient id="paint0_linear_4632_11138" x1="16" y1="30.1725" x2="43.9999" y2="30.1725" gradientUnits="userSpaceOnUse">
<stop stop-color="#6366F1"/>
<stop offset="0.5" stop-color="#8B5CF6"/>
<stop offset="1" stop-color="#D946EF"/>
</linearGradient>
<clipPath id="clip0_4632_11138">
<rect width="28" height="28" fill="white" transform="translate(16 16.1052)"/>
</clipPath>
</defs>
</svg>
