<svg width="60" height="61" viewBox="0 0 60 61" fill="none" xmlns="http://www.w3.org/2000/svg">
<rect y="0.163818" width="60" height="60" rx="8" fill="#6366F1" fill-opacity="0.08"/>
<g clip-path="url(#clip0_4632_11147)">
<path d="M42.3217 38.7083C43.4213 37.2111 43.999 35.4714 43.999 33.6378C43.999 30.7026 42.4768 27.9776 39.9088 26.277C39.672 23.6619 38.4509 21.2367 36.4093 19.3681C34.1518 17.3018 31.1566 16.1638 27.9756 16.1638C24.7946 16.1638 21.7995 17.3018 19.5419 19.3681C17.2573 21.4591 15.9991 24.2469 15.9991 27.2181C15.9991 29.5034 16.7358 31.67 18.1362 33.5238L16.0788 38.6132C15.9119 39.0259 16.0119 39.4986 16.3315 39.8084C16.5399 40.0104 16.8143 40.1169 17.0931 40.1169C17.242 40.1169 17.3922 40.0865 17.534 40.024L23.402 37.4373C24.1387 37.7189 24.8977 37.9295 25.6741 38.069C26.4695 39.377 27.6039 40.4847 28.983 41.291C30.5227 42.1911 32.3004 42.6721 34.129 42.6859C34.1558 42.6879 34.1826 42.69 34.21 42.69C35.4742 42.69 36.6991 42.4716 37.8578 42.0403L42.4641 44.0708C42.6059 44.1334 42.7561 44.1638 42.905 44.1638C43.1838 44.1638 43.4583 44.0573 43.6666 43.8553C43.9863 43.5454 44.0862 43.0727 43.9193 42.6601L42.3217 38.7083ZM40.0554 38.9388L40.8817 40.9827L38.3203 39.8536C38.0434 39.7316 37.7283 39.7297 37.4499 39.8484C36.446 40.2767 35.371 40.4963 34.2543 40.5019C34.2395 40.5013 34.2249 40.4997 34.21 40.4997C32.0545 40.4997 30.0182 39.6574 28.5955 38.2563C30.3993 38.1699 32.1673 37.7092 33.7436 36.9087C34.2823 36.6352 34.4971 35.9768 34.2235 35.4382C33.95 34.8997 33.2916 34.6849 32.753 34.9583C31.302 35.6954 29.6499 36.0849 27.9756 36.0849C26.5207 36.0849 25.12 35.8021 23.8126 35.2442C23.5343 35.1254 23.2191 35.1272 22.9422 35.2494L19.1164 36.9359L20.4045 33.7495C20.5572 33.3716 20.4873 32.9402 20.2228 32.63C18.8907 31.0672 18.1866 29.1958 18.1866 27.2181C18.1866 22.3289 22.5779 18.3513 27.9756 18.3513C33.3733 18.3513 37.7646 22.3289 37.7646 27.2181C37.7646 28.7973 37.3004 30.3475 36.422 31.7013C36.0932 32.2081 36.2374 32.8854 36.7442 33.2141C37.2509 33.543 37.9282 33.3987 38.2571 32.8919C39.0366 31.6905 39.5574 30.364 39.7982 28.9863C41.0795 30.2411 41.8115 31.8938 41.8115 33.6378C41.8115 35.165 41.2671 36.6109 40.2371 37.8193C39.9726 38.1294 39.9027 38.5609 40.0554 38.9388ZM29.0147 32.8435C29.0147 33.4475 28.525 33.9372 27.9209 33.9372C27.3168 33.9372 26.8272 33.4475 26.8272 32.8435C26.8272 32.2394 27.3168 31.7497 27.9209 31.7497C28.525 31.7497 29.0147 32.2394 29.0147 32.8435ZM32.0762 24.6487C32.0769 24.6639 32.0772 24.6791 32.0772 24.6944C32.0776 26.3409 31.0993 27.8226 29.5849 28.4691C29.2716 28.6029 29.069 28.9185 29.069 29.273V29.3435C29.069 29.9476 28.5793 30.4372 27.9753 30.4372C27.3712 30.4372 26.8815 29.9476 26.8815 29.3435V29.2731C26.8815 28.0409 27.6055 26.9357 28.7261 26.4574C29.4235 26.1596 29.8774 25.4825 29.8894 24.7263C29.8892 24.7158 29.889 24.7053 29.889 24.6947C29.889 23.6395 29.0305 22.781 27.9753 22.781C26.9201 22.781 26.0615 23.6395 26.0615 24.6947C26.0615 25.2987 25.5719 25.7884 24.9678 25.7884C24.3637 25.7884 23.874 25.2987 23.874 24.6947C23.874 22.4333 25.7138 20.5935 27.9753 20.5935C30.2213 20.5935 32.0516 22.4084 32.0762 24.6487Z" fill="url(#paint0_linear_4632_11147)"/>
</g>
<defs>
<linearGradient id="paint0_linear_4632_11147" x1="15.999" y1="30.2308" x2="43.9991" y2="30.2308" gradientUnits="userSpaceOnUse">
<stop stop-color="#6366F1"/>
<stop offset="0.5" stop-color="#8B5CF6"/>
<stop offset="1" stop-color="#D946EF"/>
</linearGradient>
<clipPath id="clip0_4632_11147">
<rect width="28" height="28" fill="white" transform="translate(16 16.1638)"/>
</clipPath>
</defs>
</svg>
