<svg width="60" height="61" viewBox="0 0 60 61" fill="none" xmlns="http://www.w3.org/2000/svg">
<rect y="0.105225" width="60" height="60" rx="8" fill="#6366F1" fill-opacity="0.08"/>
<g clip-path="url(#clip0_4632_11131)">
<path d="M29.9453 37.7615C24.9141 37.7615 22.5728 33.5396 22.4753 33.36C22.188 32.8287 22.3858 32.165 22.9171 31.8774C23.4486 31.5901 24.1121 31.7879 24.3994 32.3192C24.4018 32.3235 24.8733 33.1667 25.8111 33.9865C27.0159 35.0399 28.4068 35.574 29.9453 35.574C33.6873 35.574 35.4734 32.3517 35.491 32.3192C35.7785 31.7879 36.4422 31.5901 36.9735 31.8777C37.5048 32.165 37.7026 32.8287 37.4151 33.36C37.3179 33.5396 34.9766 37.7615 29.9453 37.7615ZM37.244 42.0876C37.7607 41.7746 37.9258 41.1021 37.6129 40.5854C37.2999 40.0688 36.6272 39.9037 36.1107 40.2166C34.2735 41.3294 32.1604 41.9177 30 41.9177C23.4866 41.9177 18.1875 36.6186 18.1875 30.1052C18.1875 23.5919 23.4866 18.2927 30 18.2927C36.5134 18.2927 41.8125 23.5919 41.8125 30.1052C41.8125 32.4344 41.1199 34.7013 39.8096 36.6613C39.4738 37.1635 39.6088 37.8429 40.1108 38.1785C40.6132 38.5143 41.2923 38.3793 41.6279 37.877C43.1799 35.5562 44 32.8687 44 30.1052C44 26.3658 42.5437 22.8499 39.8995 20.2057C37.2553 17.5615 33.7395 16.1052 30 16.1052C26.2605 16.1052 22.7447 17.5615 20.1005 20.2057C17.4563 22.8499 16 26.3658 16 30.1052C16 33.8447 17.4563 37.3605 20.1005 40.0047C22.7447 42.649 26.2605 44.1052 30 44.1052C32.5601 44.1052 35.065 43.4075 37.244 42.0876ZM37.6016 27.4802C37.6016 25.9725 36.3749 24.7458 34.8672 24.7458C33.3594 24.7458 32.1328 25.9725 32.1328 27.4802C32.1328 28.0844 32.6224 28.574 33.2266 28.574C33.8307 28.574 34.3203 28.0844 34.3203 27.4802C34.3203 27.1786 34.5656 26.9333 34.8672 26.9333C35.1688 26.9333 35.4141 27.1786 35.4141 27.4802C35.4141 28.0844 35.9037 28.574 36.5078 28.574C37.1119 28.574 37.6016 28.0844 37.6016 27.4802ZM27.9219 27.4802C27.9219 25.9725 26.6953 24.7458 25.1875 24.7458C23.6797 24.7458 22.4531 25.9725 22.4531 27.4802C22.4531 28.0844 22.9427 28.574 23.5469 28.574C24.151 28.574 24.6406 28.0844 24.6406 27.4802C24.6406 27.1786 24.8859 26.9333 25.1875 26.9333C25.4891 26.9333 25.7344 27.1786 25.7344 27.4802C25.7344 28.0844 26.224 28.574 26.8281 28.574C27.4323 28.574 27.9219 28.0844 27.9219 27.4802Z" fill="url(#paint0_linear_4632_11131)"/>
</g>
<defs>
<linearGradient id="paint0_linear_4632_11131" x1="16" y1="30.1722" x2="44" y2="30.1722" gradientUnits="userSpaceOnUse">
<stop stop-color="#6366F1"/>
<stop offset="0.5" stop-color="#8B5CF6"/>
<stop offset="1" stop-color="#D946EF"/>
</linearGradient>
<clipPath id="clip0_4632_11131">
<rect width="28" height="28" fill="white" transform="translate(16 16.1052)"/>
</clipPath>
</defs>
</svg>
